<svg width="80" height="40" viewBox="0 0 80 40" fill="none" xmlns="http://www.w3.org/2000/svg">
<path d="M14.5965 18.8613C14.5965 19.0996 14.6009 19.3369 14.6097 19.573H8.98246C4.02158 19.573 0 23.6515 0 28.6825V30.3905C0 35.4215 4.02158 39.5 8.98246 39.5H18.2376V22.2335H23.5939C25.5993 22.2335 27.3144 22.5903 28.7392 23.3039C30.1816 24.0175 31.2898 25.0968 32.0638 26.5417C32.8554 27.9867 33.2512 29.8242 33.2512 32.0541C33.2512 34.2841 32.8642 36.1394 32.0902 37.62C31.7186 38.331 31.2739 38.9577 30.7563 39.5H36.414V22.2335H41.7704C43.7757 22.2335 45.4908 22.5903 46.9156 23.3039C48.3581 24.0175 49.4663 25.0968 50.2402 26.5417C51.0318 27.9867 51.4276 29.8242 51.4276 32.0541C51.4276 34.2841 51.0406 36.1394 50.2666 37.62C49.895 38.331 49.4503 38.9577 48.9327 39.5H53.3359L55.5403 36.8173C56.2264 37.4773 57.0091 38.0125 57.8887 38.4228C58.7858 38.8153 59.6565 39.0115 60.5009 39.0115C61.5211 39.0115 62.2951 38.8064 62.8229 38.396C63.3506 37.9857 63.6144 37.4327 63.6144 36.737C63.6144 36.2375 63.4825 35.845 63.2186 35.5596C62.9724 35.2563 62.6294 34.9887 62.1896 34.7568C61.7498 34.5249 61.2397 34.293 60.6592 34.0611L58.0734 32.9104C57.4225 32.6428 56.7893 32.286 56.1736 31.8401C55.5755 31.3762 55.0742 30.7965 54.6696 30.1007C54.2826 29.405 54.0891 28.5754 54.0891 27.6121C54.0891 26.5239 54.3793 25.5517 54.9598 24.6954C55.5403 23.8391 56.3407 23.1612 57.361 22.6617C58.3812 22.1443 59.5422 21.8857 60.8439 21.8857C62.0049 21.8857 63.1219 22.1087 64.1949 22.5546C65.268 23.0006 66.2003 23.6339 66.9918 24.4545L65.0129 26.9164C64.3972 26.399 63.7552 25.9976 63.0867 25.7122C62.4183 25.4268 61.6707 25.2841 60.8439 25.2841C59.9996 25.2841 59.3223 25.4714 58.8122 25.846C58.3197 26.2028 58.0734 26.7112 58.0734 27.3713C58.0734 27.8351 58.2141 28.2187 58.4956 28.5219C58.777 28.8252 59.1464 29.0928 59.6038 29.3247C60.0611 29.5388 60.5625 29.7618 61.1078 29.9937L63.6672 31.0373C64.4588 31.3584 65.1448 31.7598 65.7253 32.2414C66.3234 32.7231 66.7807 33.3029 67.0974 33.9808C67.4316 34.6587 67.5987 35.4793 67.5987 36.4426C67.5987 37.513 67.3085 38.5031 66.728 39.4129C66.7099 39.4421 66.6916 39.4711 66.673 39.5H71.0175C75.9784 39.5 80 35.4215 80 30.3905V28.6825C80 23.6515 75.9784 19.573 71.0175 19.573H68.1578C67.5924 13.5039 62.5535 8.75547 56.4211 8.75547C53.6054 8.75547 51.0202 9.75652 48.9927 11.4268C46.2006 4.99005 39.8941 0.5 32.5614 0.5C22.6397 0.5 14.5965 8.72064 14.5965 18.8613Z" fill="#0064D6"/>
<path d="M23.3301 38.8509H22.1427V25.4179H23.3301C24.5614 25.4179 25.6169 25.6409 26.4964 26.0868C27.3935 26.515 28.0795 27.2196 28.5545 28.2008C29.0294 29.1641 29.2669 30.4486 29.2669 32.0541C29.2669 33.6597 29.0294 34.9709 28.5545 35.9877C28.0795 36.9867 27.3935 37.7181 26.4964 38.182C25.6169 38.628 24.5614 38.8509 23.3301 38.8509Z" fill="#0064D6"/>
<path d="M41.5065 38.8509H40.3191V25.4179H41.5065C42.7378 25.4179 43.7933 25.6409 44.6728 26.0868C45.5699 26.515 46.256 27.2196 46.7309 28.2008C47.2059 29.1641 47.4433 30.4486 47.4433 32.0541C47.4433 33.6597 47.2059 34.9709 46.7309 35.9877C46.256 36.9867 45.5699 37.7181 44.6728 38.182C43.7933 38.628 42.7378 38.8509 41.5065 38.8509Z" fill="#0064D6"/>
</svg>
