<svg width="400" height="193" viewBox="0 0 400 193" fill="none" xmlns="http://www.w3.org/2000/svg">
<path fill-rule="evenodd" clip-rule="evenodd" d="M73.0488 94.0352C73.0048 92.8711 72.9826 91.7013 72.9826 90.5263C72.9826 40.53 113.198 0 162.807 0C199.47 0 231.003 22.1371 244.964 53.8721C255.101 45.6372 268.027 40.7019 282.105 40.7019C312.767 40.7019 337.961 64.1128 340.788 94.0352H350.877C378.007 94.0352 400 116.028 400 143.158C400 170.288 378.007 192.281 350.877 192.281H49.1228C21.993 192.281 0 170.288 0 143.158C0 116.028 21.993 94.0352 49.1228 94.0352H73.0488Z" fill="#0064D6" fill-opacity="0.25"/>
</svg>
